<?xml version="1.0" standalone="no"?><!-- Generator: Gravit.io --><svg xmlns="http://www.w3.org/2000/svg" xmlns:xlink="http://www.w3.org/1999/xlink" style="isolation:isolate" viewBox="0 0 60.882 45" width="60.882" height="45"><defs><clipPath id="_clipPath_UvG2epWpE4fF9rksLtpWvbpEJEO4198t"><rect width="60.882" height="45"/></clipPath></defs><g clip-path="url(#_clipPath_UvG2epWpE4fF9rksLtpWvbpEJEO4198t)"><clipPath id="_clipPath_WNsN7DncELkvSBTUgTwYXipj8g61u18M"><path d=" M 0 45 L 60.882 43.676 L 60.882 0 L 0 0 L 0 45 Z " fill="rgb(255,255,255)"/></clipPath><g clip-path="url(#_clipPath_WNsN7DncELkvSBTUgTwYXipj8g61u18M)"><path d=" M 60.123 35.254 C 59.771 34.571 59.078 34.147 58.308 34.147 L 57.15 34.147 C 56.659 21.232 47.238 10.576 34.897 8.183 C 34.913 8.013 34.939 7.847 34.939 7.676 C 34.939 4.755 32.565 2.382 29.644 2.382 C 26.729 2.382 24.35 4.755 24.35 7.676 C 24.35 7.847 24.377 8.018 24.398 8.183 C 12.056 10.576 2.636 21.232 2.145 34.147 L 2.042 34.147 C 1.277 34.147 0.58 34.571 0.228 35.254 C -0.124 35.94 -0.067 36.753 0.382 37.378 L 2.777 40.729 C 4.095 42.574 6.235 43.675 8.505 43.675 L 51.845 43.675 C 54.115 43.675 56.261 42.574 57.579 40.729 L 59.972 37.378 C 60.416 36.753 60.473 35.936 60.123 35.254 Z  M 26.476 7.858 C 26.471 7.796 26.471 7.733 26.471 7.676 C 26.471 5.924 27.897 4.503 29.644 4.503 C 31.398 4.503 32.825 5.924 32.825 7.676 C 32.825 7.739 32.82 7.796 32.82 7.858 C 32.768 7.852 32.716 7.852 32.67 7.847 C 32.302 7.806 31.941 7.774 31.569 7.755 C 31.434 7.744 31.299 7.728 31.165 7.723 C 30.658 7.692 30.157 7.676 29.644 7.676 C 29.139 7.676 28.632 7.692 28.13 7.717 C 27.995 7.728 27.862 7.739 27.727 7.749 C 27.355 7.774 26.993 7.806 26.625 7.847 C 26.574 7.852 26.527 7.852 26.476 7.858 Z  M 25.839 10.08 C 26.408 9.993 26.977 9.93 27.551 9.884 C 27.67 9.879 27.784 9.868 27.903 9.863 C 29.066 9.781 30.229 9.781 31.393 9.863 L 31.744 9.884 C 32.313 9.93 32.887 9.993 33.455 10.08 C 45.326 11.869 54.533 21.904 55.035 34.147 L 4.255 34.147 C 4.762 21.904 13.97 11.869 25.839 10.08 Z  M 55.852 39.493 C 54.932 40.786 53.432 41.561 51.845 41.561 L 8.505 41.561 C 6.918 41.561 5.424 40.786 4.497 39.498 L 2.186 36.267 L 58.162 36.267 L 55.852 39.493 Z " fill="rgb(0,0,0)"/></g><clipPath id="_clipPath_GsOVAHVIkpfIrFlNmc1QZaOADPewJXGw"><path d=" M 7.887 39.842 L 52.996 38.861 L 52.996 6.5 L 7.887 6.5 L 7.887 39.842 Z " fill="rgb(255,255,255)"/></clipPath><g clip-path="url(#_clipPath_GsOVAHVIkpfIrFlNmc1QZaOADPewJXGw)"><path d=" M 29.84 15.325 C 28.552 15.325 27.27 15.467 26.028 15.746 C 25.607 15.843 25.343 16.263 25.435 16.685 C 25.518 17.049 25.841 17.298 26.201 17.298 C 26.258 17.298 26.316 17.29 26.373 17.278 C 27.503 17.022 28.667 16.896 29.84 16.896 L 29.851 16.896 C 30.284 16.896 30.636 16.543 30.636 16.11 C 30.636 15.674 30.288 15.31 29.84 15.325 Z " fill="rgb(0,0,0)"/></g><clipPath id="_clipPath_FCgqu4QDzYANli3h9mEdfEhMDitdBNYk"><path d=" M 7.887 39.842 L 52.996 38.861 L 52.996 6.5 L 7.887 6.5 L 7.887 39.842 Z " fill="rgb(255,255,255)"/></clipPath><g clip-path="url(#_clipPath_FCgqu4QDzYANli3h9mEdfEhMDitdBNYk)"><path d=" M 21.34 17.601 C 17.26 20.017 14.287 24.396 13.391 29.307 C 13.314 29.732 13.594 30.142 14.023 30.219 C 14.069 30.227 14.116 30.229 14.165 30.229 C 14.536 30.229 14.866 29.966 14.935 29.586 C 15.751 25.119 18.444 21.14 22.14 18.949 C 22.512 18.731 22.638 18.248 22.416 17.876 C 22.194 17.505 21.715 17.378 21.34 17.601 Z " fill="rgb(0,0,0)"/></g></g></svg>