<?xml version="1.0" standalone="no"?><!-- Generator: Gravit.io --><svg xmlns="http://www.w3.org/2000/svg" xmlns:xlink="http://www.w3.org/1999/xlink" style="isolation:isolate" viewBox="0 0 31.38 38.245" width="31.38" height="38.245"><defs><clipPath id="_clipPath_JOXr0dwSbcf8YUJMA4H46lFdL0lVujbc"><rect width="31.38" height="38.245"/></clipPath></defs><g clip-path="url(#_clipPath_JOXr0dwSbcf8YUJMA4H46lFdL0lVujbc)"><clipPath id="_clipPath_L7Ryh4YrrEJRpGDPXtiC7Md7VJss4VPp"><path d=" M 0 38.245 L 31.38 37.264 L 31.38 0 L 0 0 L 0 38.245 Z " fill="rgb(255,255,255)"/></clipPath><g clip-path="url(#_clipPath_L7Ryh4YrrEJRpGDPXtiC7Md7VJss4VPp)"><clipPath id="_clipPath_czyNk6pA5gGLiOuaYgLbLhgNlZlzd7yH"><path d=" M 0 1.176 L 31.38 1.176 L 31.38 37.459 L 0 37.459 L 0 1.176 Z " fill="rgb(255,255,255)"/></clipPath><g clip-path="url(#_clipPath_czyNk6pA5gGLiOuaYgLbLhgNlZlzd7yH)"><path d=" M 28.243 17.79 C 28.243 16.743 27.982 15.759 27.523 14.886 C 27.381 14.966 27.235 15.051 27.086 15.135 L 25.477 16.058 C 25.738 16.583 25.887 17.169 25.887 17.79 C 25.887 18.72 25.554 19.578 25.002 20.264 C 26.262 20.865 27.04 21.677 27.04 22.577 C 27.04 24.424 23.758 25.922 19.709 25.922 C 16.123 25.922 13.143 24.745 12.507 23.194 C 12.101 23.386 11.657 23.501 11.177 23.501 C 10.439 23.501 9.764 23.228 9.224 22.796 C 8.5 23.581 7.473 24.076 6.328 24.076 C 4.133 24.076 2.355 22.267 2.355 20.038 C 2.355 18.004 3.834 16.33 5.761 16.046 C 5.65 15.682 5.585 15.303 5.585 14.905 C 5.585 12.515 7.753 10.58 10.431 10.58 C 10.538 10.58 10.649 10.588 10.757 10.596 C 10.477 10.128 10.301 9.599 10.301 9.021 C 10.301 7.703 11.147 6.577 12.346 6.099 C 12.327 5.233 12.469 4.379 12.752 3.57 C 10.166 3.965 8.148 6.052 7.964 8.631 C 5.347 9.519 3.436 11.779 3.245 14.468 C 1.302 15.572 0 17.682 0 20.038 C 0 22.942 1.931 25.397 4.562 26.17 L 5.746 33.687 C 6.052 35.613 7.596 37.031 9.496 37.226 C 9.642 37.242 9.784 37.264 9.933 37.264 L 20.149 37.264 C 20.298 37.264 20.44 37.242 20.586 37.226 C 22.486 37.031 24.033 35.613 24.335 33.687 L 25.336 27.301 C 25.336 27.301 25.34 27.301 25.344 27.297 C 27.845 26.301 29.397 24.612 29.397 22.577 C 29.397 21.831 29.178 20.624 28.009 19.486 C 28.163 18.938 28.243 18.367 28.243 17.79 Z  M 9.01 33.997 L 7.849 26.232 C 8.42 26.09 8.968 25.872 9.477 25.577 C 9.561 25.607 9.649 25.619 9.738 25.642 C 9.746 25.646 9.752 25.646 9.76 25.65 L 11.247 35.693 L 10.994 35.697 C 10.002 35.701 9.155 34.977 9.01 33.997 Z  M 14.062 35.693 L 14.058 35.693 L 14.058 27.285 C 14.058 27.285 14.058 27.285 14.062 27.289 C 14.687 27.53 15.345 27.726 16.024 27.876 C 16.088 27.886 16.154 27.906 16.219 27.918 C 16.283 27.932 16.345 27.94 16.41 27.952 L 16.41 35.693 L 14.062 35.693 Z  M 18.831 35.693 L 19.958 28.125 L 21.954 27.848 L 21.061 33.989 C 20.919 34.981 20.065 35.709 19.065 35.697 L 18.831 35.693 Z " fill="rgb(0,0,0)"/></g></g><clipPath id="_clipPath_RQECf0vjItsXBeKRQRviTvMZlw4Vdc34"><path d=" M 0 38.245 L 31.38 37.264 L 31.38 0 L 0 0 L 0 38.245 Z " fill="rgb(255,255,255)"/></clipPath><g clip-path="url(#_clipPath_RQECf0vjItsXBeKRQRviTvMZlw4Vdc34)"><clipPath id="_clipPath_ISAuCggfYhBvcAeofhbmYb5cibxNLEfF"><path d=" M 0 1.176 L 31.38 1.176 L 31.38 37.459 L 0 37.459 L 0 1.176 Z " fill="rgb(255,255,255)"/></clipPath><g clip-path="url(#_clipPath_ISAuCggfYhBvcAeofhbmYb5cibxNLEfF)"><path d=" M 17.559 12.124 C 18.9 12.327 20.237 12.676 21.448 13.2 C 22.213 13.534 22.834 14.001 23.393 14.541 C 25.631 13.258 28.182 11.794 28.254 11.748 C 30.522 10.439 31.3 7.542 29.994 5.275 C 29.116 3.754 27.523 2.904 25.884 2.904 C 25.083 2.904 24.275 3.107 23.531 3.532 C 22.655 2.019 21.064 1.176 19.432 1.176 C 18.628 1.176 17.816 1.379 17.069 1.812 C 14.802 3.118 14.024 6.018 15.334 8.285 C 15.369 8.351 16.445 10.201 17.559 12.124 Z " fill="rgb(0,0,0)"/></g></g></g></svg>