<?xml version="1.0" standalone="no"?>
<!--Generator: Gravit.io-->
<svg xmlns="http://www.w3.org/2000/svg" xmlns:xlink="http://www.w3.org/1999/xlink" width="51.603" height="64">
    <g clip-path="url(#_clipPath_XudP74LX2Hamcv8uldFirusO3Rfamun8)">
        <g id="Group">
            <path d=" M 2.936 1.701 L 2.936 54.806 C 2.936 55.616 2.278 56.274 1.467 56.274 C 0.657 56.274 0 55.616 0 54.806 L 0 1.701 C 0 0.891 0.657 0.233 1.467 0.233 C 2.278 0.233 2.936 0.891 2.936 1.701 Z  M 51.443 2.664 L 51.443 53.842 C 51.443 54.653 50.785 55.31 49.974 55.31 L 22.89 55.31 L 22.89 62.302 C 22.89 62.8 22.638 63.264 22.221 63.534 C 21.803 63.805 21.277 63.846 20.823 63.643 L 17.194 62.023 L 13.561 63.644 C 13.37 63.729 13.166 63.771 12.963 63.771 C 12.684 63.771 12.406 63.691 12.164 63.534 C 11.748 63.263 11.496 62.8 11.496 62.302 L 11.496 55.31 L 7.334 55.31 C 6.524 55.31 5.866 54.653 5.866 53.842 L 5.866 2.664 C 5.866 1.853 6.524 1.196 7.334 1.196 L 49.974 1.196 C 50.785 1.196 51.443 1.853 51.443 2.664 Z  M 19.954 55.31 L 14.431 55.31 L 14.431 60.04 L 16.596 59.075 C 16.977 58.904 17.411 58.904 17.792 59.075 L 19.954 60.04 L 19.954 55.31 Z  M 48.507 4.133 L 8.802 4.133 L 8.802 52.375 L 48.507 52.375 L 48.507 4.133 Z  M 15.724 25.679 C 15.724 22.536 18.281 19.98 21.421 19.98 C 21.928 19.98 22.428 20.047 22.909 20.177 C 23.904 18.456 25.749 17.353 27.835 17.353 C 29.883 17.353 31.747 18.476 32.753 20.18 C 33.236 20.048 33.739 19.98 34.249 19.98 C 37.389 19.98 39.946 22.537 39.946 25.679 C 39.946 28.82 37.389 31.377 34.249 31.377 C 34.13 31.377 34.011 31.373 33.893 31.366 L 33.893 37.686 C 33.893 38.497 33.236 39.154 32.425 39.154 L 23.245 39.154 C 22.435 39.154 21.778 38.497 21.778 37.686 L 21.778 31.366 C 21.66 31.373 21.541 31.377 21.421 31.377 C 18.281 31.377 15.724 28.82 15.724 25.679 Z  M 18.66 25.679 C 18.66 27.201 19.899 28.44 21.421 28.44 C 21.839 28.44 22.239 28.35 22.611 28.171 C 23.066 27.954 23.601 27.984 24.028 28.254 C 24.454 28.523 24.713 28.991 24.713 29.496 L 24.713 36.218 L 30.957 36.218 L 30.957 29.496 C 30.957 28.991 31.217 28.523 31.643 28.254 C 32.07 27.985 32.606 27.954 33.06 28.172 C 33.432 28.35 33.831 28.44 34.249 28.44 C 35.772 28.44 37.01 27.202 37.01 25.679 C 37.01 24.155 35.772 22.917 34.249 22.917 C 33.716 22.917 33.201 23.068 32.756 23.354 C 32.353 23.614 31.849 23.661 31.404 23.479 C 30.961 23.297 30.634 22.91 30.529 22.442 C 30.25 21.195 29.116 20.29 27.835 20.29 C 26.555 20.29 25.422 21.195 25.141 22.442 C 25.036 22.91 24.709 23.297 24.265 23.479 C 23.821 23.661 23.317 23.614 22.914 23.354 C 22.47 23.068 21.954 22.917 21.421 22.917 C 19.899 22.917 18.66 24.155 18.66 25.679 Z "/>
        </g>
    </g>
</svg>
