<svg xmlns="http://www.w3.org/2000/svg" viewBox="0 0 512 512">
    <path d=" M 305.936 214.285 C 300.628 212.838 295.161 215.893 293.713 221.2 C 292.266 226.508 295.321 231.976 300.628 233.423 C 301.111 233.584 352.735 248.38 374.446 292.606 C 376.216 296.144 379.754 298.074 383.292 298.074 C 384.739 298.074 386.187 297.752 387.634 297.109 C 392.459 294.697 394.549 288.746 392.137 283.921 C 366.566 231.654 308.348 214.928 305.936 214.285 Z "/>
    <path d=" M 470.94 353.539 C 463.703 246.592 377.824 160.712 270.876 153.475 L 270.876 128.869 L 241.124 128.869 L 241.124 153.475 C 134.176 160.712 48.297 246.431 41.06 353.539 L 6 353.539 L 6 383.131 L 55.373 383.131 L 456.627 383.131 L 506 383.131 L 506 353.379 L 470.94 353.379 L 470.94 353.539 Z  M 70.651 353.539 C 78.21 258.01 158.461 182.584 255.92 182.584 C 353.379 182.584 433.629 258.01 441.188 353.539 L 70.651 353.539 L 70.651 353.539 Z "/>
</svg>
