<svg xmlns="http://www.w3.org/2000/svg" viewBox="0 0 512 512">
    <g id="XMLID_548_">
        <path d=" M 491.188 179.675 L 359.784 179.675 L 20.812 179.675 C 11.197 179.675 3.467 187.405 3.467 197.02 L 3.467 240.004 C 3.467 341.055 64.55 432.868 156.74 472.27 L 156.74 485.656 C 156.74 495.27 164.47 503 174.085 503 L 337.915 503 C 347.53 503 355.26 495.27 355.26 485.656 L 355.26 472.27 C 447.45 432.868 508.533 340.866 508.533 240.004 L 508.533 197.02 C 508.533 187.594 500.803 179.675 491.188 179.675 Z  M 473.843 240.004 C 473.843 330.686 416.72 412.695 331.882 444.179 C 325.095 446.63 320.571 453.229 320.571 460.393 L 320.571 468.311 L 191.618 468.311 L 191.618 460.393 C 191.618 453.04 187.093 446.63 180.306 444.179 C 95.469 412.695 38.345 330.497 38.345 240.004 L 38.345 214.553 L 474.032 214.553 L 474.032 240.004 L 473.843 240.004 Z "/>
        <path d=" M 144.863 384.605 C 146.748 385.736 149.011 386.302 151.085 386.302 C 154.855 386.302 158.626 384.416 160.888 380.834 C 164.281 375.367 162.773 368.203 157.306 364.809 C 105.649 332.194 90.379 254.709 90.19 253.955 C 89.059 247.734 82.837 243.586 76.616 244.717 C 70.395 245.849 66.247 252.07 67.378 258.291 C 68.132 262.062 84.723 346.711 144.863 384.605 Z "/>
    </g>
    <path d=" M 380.711 327.858 L 310.013 249.054 C 296.062 233.594 272.308 232.275 256.848 246.226 L 251.381 251.127 L 134.117 120.666 L 147.126 108.978 C 150.519 105.961 152.593 101.625 152.781 96.912 C 152.97 92.387 151.462 87.863 148.257 84.281 L 92.264 22.066 C 85.288 14.337 75.674 9.624 65.116 9.058 C 54.747 8.493 44.567 12.075 36.837 19.05 L 17.419 36.395 C 9.689 43.37 4.976 52.985 4.41 63.543 C 3.845 73.912 7.426 84.092 14.402 91.822 L 70.395 154.036 C 73.788 157.806 78.501 159.88 83.403 159.88 C 87.551 159.88 91.698 158.372 95.092 155.355 L 108.1 143.667 L 225.364 274.128 L 219.897 279.029 C 212.356 285.816 208.02 295.054 207.454 305.046 C 206.889 315.038 210.282 324.842 217.069 332.194 L 287.767 410.999 C 295.12 419.294 305.489 423.441 315.858 423.441 C 324.907 423.441 333.768 420.236 341.12 413.827 L 377.694 380.834 C 385.236 374.047 389.572 364.809 390.137 354.817 C 390.891 345.014 387.498 335.399 380.711 327.858 Z  M 84.911 118.027 L 40.608 68.633 C 39.665 67.502 39.476 66.37 39.476 65.428 C 39.476 64.674 39.853 63.354 40.984 62.411 L 60.403 45.067 C 61.157 44.313 62.288 43.936 63.419 43.936 C 64.55 43.936 65.87 44.501 66.624 45.444 L 110.928 94.838 L 84.911 118.027 Z  M 325.661 396.859 C 319.628 402.138 310.579 401.761 305.111 395.728 L 234.414 316.923 C 231.774 314.096 230.455 310.325 230.643 306.554 C 230.832 302.595 232.528 299.202 235.356 296.562 L 251.193 282.423 L 341.309 382.72 L 325.661 396.859 Z  M 367.137 353.875 C 366.948 357.834 365.252 361.227 362.424 363.867 L 358.842 367.072 L 268.726 266.775 L 272.308 263.57 C 278.341 258.291 287.39 258.668 292.857 264.701 L 363.555 343.506 C 366.006 346.334 367.325 349.916 367.137 353.875 Z "/>
</svg>
