<svg xmlns="http://www.w3.org/2000/svg" viewBox="0 0 512 512">
    <path d=" M 437.101 235.97 C 437.101 221.305 433.445 207.522 427.016 195.293 C 425.027 196.414 422.982 197.605 420.895 198.781 L 398.357 211.71 C 402.013 219.063 404.1 227.272 404.1 235.97 C 404.1 248.996 399.436 261.015 391.704 270.623 C 409.353 279.042 420.25 290.415 420.25 303.022 C 420.25 328.893 374.279 349.875 317.565 349.875 C 267.336 349.875 225.595 333.389 216.686 311.664 C 210.999 314.353 204.78 315.964 198.057 315.964 C 187.72 315.964 178.265 312.14 170.701 306.089 C 160.56 317.085 146.175 324.018 130.137 324.018 C 99.391 324.018 74.487 298.679 74.487 267.458 C 74.487 238.967 95.203 215.52 122.195 211.542 C 120.64 206.443 119.729 201.134 119.729 195.56 C 119.729 162.083 150.097 134.979 187.607 134.979 C 189.106 134.979 190.661 135.091 192.174 135.203 C 188.252 128.648 185.787 121.238 185.787 113.142 C 185.787 94.681 197.636 78.909 214.431 72.214 C 214.165 60.084 216.154 48.121 220.118 36.79 C 183.896 42.323 155.629 71.555 153.052 107.679 C 116.396 120.118 89.628 151.774 86.953 189.439 C 59.737 204.902 41.5 234.457 41.5 267.458 C 41.5 308.134 68.548 342.521 105.4 353.349 L 121.984 458.64 C 126.271 485.617 147.897 505.479 174.511 508.211 C 176.556 508.435 178.545 508.743 180.632 508.743 L 323.728 508.743 C 325.815 508.743 327.804 508.435 329.849 508.211 C 356.462 505.479 378.131 485.617 382.361 458.64 L 396.382 369.191 C 396.382 369.191 396.438 369.191 396.494 369.135 C 431.526 355.184 453.265 331.526 453.265 303.022 C 453.265 292.572 450.197 275.666 433.823 259.726 C 435.98 252.05 437.101 244.052 437.101 235.97 Z  M 167.703 462.982 L 151.441 354.217 C 159.439 352.228 167.115 349.175 174.245 345.043 C 175.421 345.463 176.654 345.631 177.901 345.953 C 178.013 346.009 178.097 346.009 178.209 346.065 L 199.037 486.738 L 195.493 486.794 C 181.598 486.85 169.734 476.709 167.703 462.982 Z  M 238.467 486.738 L 238.411 486.738 L 238.411 368.967 C 238.411 368.967 238.411 368.967 238.467 369.023 C 247.221 372.399 256.438 375.144 265.949 377.245 C 266.845 377.385 267.77 377.665 268.68 377.833 C 269.577 378.029 270.445 378.141 271.356 378.309 L 271.356 486.738 L 238.467 486.738 Z  M 305.267 486.738 L 321.053 380.733 L 349.011 376.853 L 336.502 462.87 C 334.513 476.765 322.551 486.962 308.544 486.794 L 305.267 486.738 Z "/>
    <path d=" M 287.45 156.606 C 306.233 159.449 324.96 164.338 341.923 171.678 C 352.638 176.356 361.337 182.897 369.167 190.461 C 400.514 172.49 436.246 151.984 437.255 151.339 C 469.023 133.004 479.92 92.426 461.627 60.672 C 449.329 39.367 427.016 27.461 404.058 27.461 C 392.839 27.461 381.521 30.305 371.1 36.258 C 358.83 15.065 336.544 3.257 313.685 3.257 C 302.423 3.257 291.049 6.1 280.586 12.165 C 248.832 30.459 237.935 71.079 256.284 102.833 C 256.774 103.757 271.846 129.67 287.45 156.606 Z "/>
</svg>
